<?xml version="1.0" standalone="no"?>
<!DOCTYPE svg PUBLIC "-//W3C//DTD SVG 20010904//EN"
 "http://www.w3.org/TR/2001/REC-SVG-20010904/DTD/svg10.dtd">
<svg version="1.0" xmlns="http://www.w3.org/2000/svg"
 width="400.000000pt" height="400.000000pt" viewBox="0 0 400.000000 400.000000"
 preserveAspectRatio="xMidYMid meet">
<metadata>
Created by potrace 1.11, written by Peter Selinger 2001-2013
</metadata>
<g transform="translate(0.000000,400.000000) scale(0.100000,-0.100000)"
fill="#000000" stroke="none">
<path d="M580 3980 c-264 -69 -457 -256 -551 -535 l-24 -70 -3 -1325 c-2 -909
1 -1347 8 -1395 25 -161 100 -306 219 -426 118 -118 262 -193 421 -218 43 -7
501 -11 1352 -11 1065 0 1299 2 1360 14 193 37 362 140 474 289 48 65 83 123
66 113 -19 -11 -22 27 -13 163 12 165 31 200 45 81 3 -25 12 -58 20 -74 l14
-28 13 49 c17 63 26 2594 10 2717 -13 96 -57 227 -102 303 -47 78 -169 205
-244 252 -34 22 -90 51 -124 65 -137 58 -70 56 -1526 55 -1292 0 -1343 -1
-1415 -19z m657 -21 c96 -48 117 -160 67 -360 -34 -133 -90 -265 -145 -335
-46 -60 -65 -74 -101 -74 -57 1 -56 11 14 152 97 194 113 248 113 388 0 99 -3
119 -20 142 -11 15 -28 30 -37 33 -54 19 -258 -163 -384 -340 -205 -290 -343
-562 -445 -874 -38 -114 -42 -138 -46 -252 -8 -194 26 -269 121 -269 114 0
273 133 635 530 229 251 343 386 462 550 116 159 242 321 268 344 25 22 73 25
96 6 26 -22 15 -55 -160 -466 -137 -322 -255 -673 -255 -761 l0 -35 52 44
c128 107 340 336 690 749 107 126 122 139 159 139 49 0 24 -41 -229 -370 -342
-444 -421 -535 -553 -634 -72 -54 -123 -70 -202 -63 -86 8 -97 22 -97 121 0
131 64 358 166 590 24 55 44 104 44 108 0 24 -27 -6 -118 -134 -180 -254 -427
-534 -575 -654 -107 -86 -199 -130 -302 -145 -192 -26 -342 42 -396 179 -48
120 -23 355 59 577 114 304 365 707 572 916 113 115 248 201 350 222 53 11
150 -1 197 -24z m1876 -1310 c22 -10 24 -15 16 -48 -11 -48 -218 -661 -264
-781 -122 -316 -172 -465 -162 -472 21 -14 40 -9 280 71 235 78 289 104 322
155 8 12 39 81 69 152 45 110 161 360 213 459 142 272 240 429 279 447 16 7
35 8 56 2 61 -18 63 -13 -180 -574 -206 -478 -358 -868 -467 -1200 -137 -419
-181 -540 -247 -679 -56 -118 -81 -147 -132 -156 -70 -14 -116 14 -116 69 0
36 41 210 70 296 64 192 208 580 270 725 23 55 50 124 60 153 23 64 23 64 -98
23 -48 -16 -160 -52 -249 -80 -198 -63 -211 -73 -242 -193 -54 -202 -184 -590
-270 -803 -47 -118 -68 -139 -129 -129 l-42 7 0 62 c0 116 37 290 135 634 24
86 51 176 60 200 8 24 13 46 11 48 -2 2 -46 -8 -97 -22 -133 -38 -196 -47
-242 -34 -43 11 -56 31 -36 56 16 19 193 104 329 157 107 42 143 71 165 130 8
23 56 154 106 291 192 527 378 974 426 1027 18 20 70 24 106 7z m-828 -38 c7
-12 -29 -33 -39 -24 -3 3 -6 12 -6 20 0 15 36 18 45 4z m77 -97 c50 -16 98
-63 98 -93 0 -23 -47 -87 -93 -128 -21 -19 -64 -41 -103 -53 -122 -37 -125
-22 -9 47 117 71 154 138 99 182 -39 31 -91 44 -154 38 -192 -17 -337 -210
-232 -309 36 -35 98 -65 147 -73 50 -8 95 -25 95 -36 0 -16 -72 -22 -124 -10
-62 14 -127 -2 -198 -49 -93 -62 -138 -133 -138 -219 0 -40 6 -57 33 -92 63
-84 169 -115 286 -84 84 22 137 49 184 93 52 51 49 72 -19 123 -54 40 -58 41
-95 30 -25 -7 -50 -26 -70 -51 -26 -32 -39 -40 -64 -40 -39 0 -56 17 -45 46
22 56 130 98 296 114 58 5 124 15 147 21 97 26 187 93 187 140 0 14 7 19 29
19 31 0 41 -14 41 -61 0 -55 -125 -116 -296 -143 -56 -9 -104 -16 -108 -16
-17 0 -2 -19 24 -30 16 -7 50 -25 75 -41 65 -41 63 -72 -8 -144 -46 -45 -66
-57 -138 -81 -111 -36 -299 -45 -398 -19 -122 31 -194 82 -226 157 -27 67 12
167 96 243 43 39 159 97 217 110 37 8 42 21 11 30 -12 4 -39 23 -60 42 -69 63
-62 141 21 224 118 118 334 167 492 113z m-244 -291 c-2 -10 -10 -18 -18 -18
-8 0 -16 8 -18 18 -2 12 3 17 18 17 15 0 20 -5 18 -17z m-1845 -424 c5 -4 11
-28 13 -53 2 -26 6 -52 10 -57 3 -6 3 -41 -1 -79 -7 -66 -8 -68 -36 -72 -32
-5 -30 -11 -31 97 0 33 5 82 11 108 6 27 9 53 6 58 -4 5 -3 14 1 21 6 9 9 8
12 -2 3 -8 9 -18 15 -21z m467 -159 c0 -9 9 -25 19 -34 11 -10 24 -30 31 -46
23 -55 -27 -94 -67 -51 -10 10 -36 22 -58 26 l-40 8 28 10 c15 6 27 18 27 27
0 8 8 27 17 40 10 14 17 26 15 28 -1 1 -2 9 -2 18 0 14 3 14 15 4 8 -7 15 -20
15 -30z m-236 -76 c17 -6 22 -24 8 -24 -5 0 -17 7 -28 15 -19 15 -8 20 20 9z
m686 -34 c0 -13 -20 -13 -40 0 -12 8 -9 10 13 10 15 0 27 -4 27 -10z m10 -125
c0 -13 -38 -41 -55 -41 -11 0 -52 -6 -92 -13 -72 -13 -104 -8 -85 11 20 20
232 60 232 43z m184 -136 c12 -61 7 -98 -14 -109 -19 -10 -20 -8 -20 65 0 57
3 75 14 75 7 0 16 -14 20 -31z m-89 -59 c-3 -5 -10 -10 -16 -10 -5 0 -9 5 -9
10 0 6 7 10 16 10 8 0 12 -4 9 -10z m-690 -240 c16 -7 11 -9 -20 -9 -29 -1
-36 2 -25 9 17 11 19 11 45 0z m1395 -50 c12 -8 11 -10 -7 -10 -13 0 -23 5
-23 10 0 13 11 13 30 0z m-1180 -60 c-8 -5 -19 -10 -25 -10 -5 0 -3 5 5 10 8
5 20 10 25 10 6 0 3 -5 -5 -10z m2752 -41 c-23 -9 -55 -2 -47 10 2 4 19 6 37
3 30 -5 31 -6 10 -13z m78 -5 c0 -2 -9 -4 -21 -4 -11 0 -18 4 -14 10 5 8 35 3
35 -6z m270 6 c0 -5 -5 -10 -11 -10 -5 0 -7 5 -4 10 3 6 8 10 11 10 2 0 4 -4
4 -10z m-1883 -16 c-3 -3 -12 -4 -19 -1 -8 3 -5 6 6 6 11 1 17 -2 13 -5z
m-1517 -14 c13 -9 13 -10 0 -10 -8 0 -22 5 -30 10 -13 9 -13 10 0 10 8 0 22
-5 30 -10z m-70 -75 c-14 -17 -40 -20 -40 -6 0 8 18 16 44 20 5 0 3 -6 -4 -14z
m-270 -5 c0 -5 -19 -9 -42 -9 l-43 2 35 7 c19 4 38 8 43 9 4 0 7 -3 7 -9z
m1814 -39 c3 -5 -17 -11 -45 -13 -28 -3 -54 -10 -58 -16 -5 -8 -17 -9 -44 -1
-49 13 -53 24 -9 27 20 2 38 5 41 7 8 9 110 5 115 -4z m-1576 -15 c-7 -8 -15
-12 -17 -11 -5 6 10 25 20 25 5 0 4 -6 -3 -14z m-308 -32 c0 -2 -7 -4 -15 -4
-8 0 -15 4 -15 10 0 5 7 7 15 4 8 -4 15 -8 15 -10z m920 -104 c0 -5 -7 -10
-15 -10 -8 0 -15 5 -15 10 0 6 7 10 15 10 8 0 15 -4 15 -10z m190 -9 c0 -13
-28 -22 -35 -11 -3 4 1 11 7 13 20 8 28 8 28 -2z m-906 -40 c14 -22 -56 -28
-74 -6 -11 13 -7 15 28 15 23 0 43 -4 46 -9z m346 -1 c0 -13 -11 -13 -30 0
-12 8 -11 10 8 10 12 0 22 -4 22 -10z m708 -41 c-2 -6 -7 -10 -11 -10 -4 1
-14 1 -23 1 -8 0 -12 5 -9 10 8 13 48 13 43 -1z m-269 -13 c9 -11 5 -16 -19
-26 -16 -7 -36 -10 -45 -6 -25 9 -17 34 13 39 15 2 30 5 33 6 4 0 12 -5 18
-13z m-404 -6 c3 -6 -1 -13 -10 -16 -19 -8 -30 0 -20 15 8 14 22 14 30 1z
m1169 -29 c8 -12 -20 -22 -39 -15 -19 8 -9 24 15 24 10 0 21 -4 24 -9z m-1644
-17 c0 -17 -23 -44 -38 -44 -27 0 -43 20 -29 36 12 13 67 20 67 8z m250 -44
c0 -13 -7 -20 -18 -20 -30 0 -34 13 -10 27 30 16 28 16 28 -7z m65 10 c-3 -5
-15 -10 -26 -10 -10 0 -19 5 -19 10 0 6 12 10 26 10 14 0 23 -4 19 -10z m-230
-10 c3 -6 -1 -13 -10 -16 -19 -8 -30 0 -20 15 8 14 22 14 30 1z m405 -11 c0
-5 -9 -9 -20 -9 -19 0 -26 11 -14 23 8 8 34 -3 34 -14z m-52 -6 c2 -8 -6 -13
-22 -13 -25 0 -33 10 -19 24 10 10 36 3 41 -11z m195 -80 c-7 -2 -21 -2 -30 0
-10 3 -4 5 12 5 17 0 24 -2 18 -5z m2392 -43 c3 -5 -1 -10 -9 -10 -8 0 -18 5
-21 10 -3 6 1 10 9 10 8 0 18 -4 21 -10z m133 -27 c2 -8 -5 -13 -17 -13 -12 0
-21 6 -21 16 0 18 31 15 38 -3z m-1905 -140 c-7 -2 -19 -2 -25 0 -7 3 -2 5 12
5 14 0 19 -2 13 -5z"/>
</g>
</svg>
