<?xml version="1.0" encoding="utf-8"?>
<!-- Generator: Adobe Illustrator 22.0.1, SVG Export Plug-In . SVG Version: 6.00 Build 0)  -->
<svg version="1.1" id="Layer_1" xmlns="http://www.w3.org/2000/svg" xmlns:xlink="http://www.w3.org/1999/xlink" x="0px" y="0px"
	 viewBox="0 0 200 200" style="enable-background:new 0 0 200 200;" xml:space="preserve">
<style type="text/css">
	.st0{fill:none;}
	.st1{fill:#F69500;}
</style>
<rect class="st0" width="200" height="200"/>
<g id="_x36_ozZ83.tif">
	<g>
		<path d="M97.4,69.5c0.9,0.2,1.9,0.3,2.8,0.5c1.6,0.3,3.1,0.9,4.4,1.9c2.1,1.5,3.2,3.6,3.5,6.1c0.1,1.3,0.2,2.7,0.2,4
			c0,3.6,0,7.2,0,10.7c0,1.9,0.5,3.5,1.6,5c0.3,0.3,0.5,0.7,0.8,1.1c0.4,0.7,0.3,1.2-0.3,1.7c-1.4,1.2-2.9,2.5-4.3,3.7
			c-0.8,0.7-1.3,0.7-2.1,0c-1-0.8-1.8-1.8-2.5-2.8c-0.2-0.3-0.4-0.6-0.6-1c-0.5,0.5-1,1-1.6,1.4c-2.8,2.6-6.2,3.3-9.9,3
			c-2-0.2-3.8-0.9-5.3-2.3c-1.5-1.4-2.3-3.1-2.6-5.1c-0.4-2.6-0.2-5.2,1.1-7.6c1.5-2.7,3.9-4.3,6.7-5.3c2.2-0.7,4.5-1,6.9-1.3
			c1.1-0.1,2.2-0.2,3.4-0.4c0-1.5,0.2-3-0.3-4.5c-0.6-1.7-2-2.3-3.6-2.4c-2.5-0.1-4.7,1.1-5.3,3.7c-0.2,0.8-0.6,1.1-1.5,1
			c-1.8-0.2-3.6-0.4-5.4-0.6c-0.9-0.1-1.3-0.7-1.1-1.6c1-4.7,4.1-7.4,8.6-8.6c1.1-0.3,2.2-0.4,3.3-0.6c0.1,0,0.3-0.1,0.4-0.1
			C95.5,69.5,96.5,69.5,97.4,69.5z M99.5,87.9c-1.8,0-3.6,0.1-5.3,0.7c-1.8,0.6-3.2,1.7-3.7,3.7c-0.3,1-0.3,2.1-0.1,3.2
			c0.3,1.8,1.5,2.9,3,3.1c1.4,0.2,2.5-0.2,3.6-1.1c0.9-0.8,1.5-1.8,1.9-3C99.7,92.3,99.4,90.1,99.5,87.9z"/>
		<path d="M16.2,69.5c0.9,0.2,1.9,0.3,2.8,0.5c1.6,0.3,3,0.9,4.4,1.8c2.3,1.6,3.3,3.9,3.5,6.6c0.1,1.2,0.1,2.3,0.1,3.5
			c0,3.6,0,7.1,0,10.7c0,1.9,0.5,3.6,1.7,5.1c0.3,0.3,0.5,0.7,0.8,1.1c0.4,0.6,0.3,1.1-0.3,1.6c-1.5,1.3-2.9,2.5-4.4,3.8
			c-0.7,0.6-1.3,0.6-2.1,0c-1-0.8-1.8-1.8-2.5-2.8c-0.2-0.3-0.4-0.6-0.6-0.9c-0.7,0.6-1.3,1.2-1.9,1.7c-2.1,1.8-4.5,2.6-7.3,2.7
			c-1.8,0.1-3.5-0.1-5.1-0.8c-2.9-1.3-4.5-3.6-5-6.7c-0.1-0.3-0.1-0.7-0.2-1c0-0.8,0-1.5,0-2.3c0.1-0.4,0.1-0.9,0.2-1.3
			c0.8-4.1,3.4-6.7,7.2-8.1c2.7-1,5.5-1.3,8.3-1.6c0.8-0.1,1.7-0.2,2.6-0.3c-0.1-1.3-0.1-2.6-0.3-3.8c-0.1-1.1-0.7-1.9-1.7-2.5
			c-2.2-1.2-6.5-0.6-7.3,3.1c0,0.1-0.1,0.3-0.1,0.4c-0.2,0.6-0.6,0.8-1.2,0.7c-1-0.1-2-0.2-3-0.3c-0.8-0.1-1.6-0.2-2.4-0.3
			C1.5,80.2,1,79.6,1.1,79c0.4-1.9,1.1-3.7,2.4-5.2c1.9-2.2,4.3-3.3,7-3.9c1-0.2,2-0.3,3-0.5C14.4,69.5,15.3,69.5,16.2,69.5z
			 M18.3,87.9c-1.8,0-3.4,0.1-5,0.6c-2.7,0.8-4,2.6-4.2,5.4c0,1,0.1,1.9,0.5,2.8c0.9,1.8,3.1,2.5,5.1,1.4c1.4-0.7,2.2-1.9,2.8-3.3
			C18.5,92.6,18.3,90.3,18.3,87.9z"/>
		<path d="M200.1,103.5c-0.3,0.6-0.8,0.9-1.5,0.8c-1.9,0-3.8,0-5.6,0c-1,0-1.4-0.4-1.4-1.4c0-6.1,0-12.2,0-18.3
			c0-1.4-0.1-2.8-0.3-4.1c-0.4-2.1-1.9-3.2-3.7-3c-1.6,0.1-2.6,1.1-3.3,2.4c-0.7,1.5-1,3.1-1,4.8c0,6,0,11.9,0,17.9
			c0,0.2,0,0.3,0,0.5c0,0.8-0.5,1.3-1.3,1.3c-2,0-4,0-6,0c-0.7,0-1.2-0.5-1.2-1.2c0-0.1,0-0.2,0-0.4c0-10.3,0-20.6,0-30.9
			c0-1.1,0.4-1.5,1.5-1.5c1.7,0,3.5,0,5.2,0c1,0,1.4,0.4,1.4,1.4c0,1.3,0,2.6,0,3.9c0,0.1,0,0.3,0.1,0.5c0.1-0.2,0.1-0.3,0.2-0.5
			c0.6-1.4,1.4-2.8,2.5-3.9c1.6-1.6,3.7-2.1,5.9-2c2.5,0,4.6,0.8,6.3,2.7c1.2,1.3,1.8,2.9,2,4.7c0.1,1,0.2,1.9,0.3,2.9
			c0,0.1,0,0.3,0.1,0.4C200.1,88.2,200.1,95.8,200.1,103.5z"/>
		<path class="st1" d="M78.6,129.7c-0.8-0.1-1.6-0.1-2.4-0.2c-5.7-0.3-11.2-1.3-16.7-2.8c-9.1-2.6-17.5-6.7-25.1-12.4
			c-1.9-1.4-3.8-3.1-5.6-4.6c-0.2-0.2-0.3-0.3-0.5-0.5c-0.2-0.3-0.2-0.7,0-1c0.2-0.3,0.6-0.4,1-0.3c0.3,0.1,0.6,0.2,0.9,0.4
			c8.7,5,18,8.6,27.8,10.9c4.5,1.1,9,1.8,13.6,2.3c5.5,0.6,11,0.7,16.6,0.4c11.8-0.8,23.1-3.4,34-7.9c0.4-0.2,0.9-0.3,1.3-0.2
			c0.6,0,1.1,0.4,1.3,1c0.2,0.6,0,1.1-0.4,1.5c-0.5,0.4-1,0.8-1.5,1.2c-5.1,3.5-10.7,6.1-16.6,8.1c-5.2,1.8-10.6,3-16.1,3.6
			c-2,0.2-4,0.3-6,0.5c-0.2,0-0.4,0.1-0.7,0.1C82,129.7,80.3,129.7,78.6,129.7z"/>
		<path d="M42.4,75.6c1.4-3.7,4-5.8,8-5.9c4.1-0.1,6.6,2.2,8.1,5.9c0.2-0.4,0.3-0.7,0.4-0.9c1.7-3.5,5.1-5.1,8.7-4.9
			c2.7,0.2,4.9,1.2,6.6,3.4c0.9,1.2,1.3,2.6,1.5,4.1c0.1,1.1,0.2,2.1,0.2,3.2c0,7.5,0,14.9,0,22.4c0,0.1,0,0.2,0,0.3
			c0,0.7-0.4,1.2-1.2,1.2c-2.1,0-4.1,0-6.2,0c-0.7,0-1.1-0.5-1.1-1.3c0-2.3,0-4.6,0-6.9c0-4.2,0-8.5,0-12.7c0-0.9,0-1.7-0.1-2.6
			c-0.3-2.7-2.7-4.1-5.2-3c-1.6,0.7-2.4,2.1-2.6,3.8c-0.1,1.1-0.2,2.3-0.2,3.4c0,5.9,0,11.8,0,17.6c0,1.2-0.4,1.5-1.6,1.5
			c-1.8,0-3.7,0-5.5,0c-1,0-1.4-0.4-1.4-1.4c0-6.2,0-12.3,0-18.5c0-1.3-0.1-2.7-0.3-4c-0.5-2.4-2.6-3.5-4.9-2.7
			c-1.1,0.4-1.8,1.1-2.1,2.2c-0.3,1-0.6,2.1-0.6,3.2c-0.1,2.1-0.1,4.1-0.1,6.2c0,4.5,0,8.9,0,13.4c0,1.2-0.4,1.5-1.6,1.5
			c-1.8,0-3.7,0-5.5,0c-1,0-1.4-0.4-1.4-1.4c0-10.3,0-20.7,0-31c0-1.1,0.4-1.5,1.5-1.5c1.7,0,3.5,0,5.2,0c1,0,1.4,0.4,1.4,1.4
			c0,1.3,0,2.5,0,3.8C42.3,75.6,42.3,75.6,42.4,75.6z"/>
		<path d="M142,87.3c0-3.6,0.6-7.2,2.3-10.4c1.8-3.4,4.4-5.8,8.1-6.7c6.1-1.5,12.5,0.6,15.7,7.6c1.7,3.7,2.2,7.7,1.9,11.8
			c-0.2,3.5-1.2,6.8-3.2,9.7c-4.2,6.2-11.6,6.9-16.6,4.5c-2.6-1.3-4.5-3.4-5.8-5.9c-1.6-3.1-2.2-6.3-2.3-9.8
			C142,87.8,142,87.6,142,87.3z M151.2,86.9c0,1,0,2,0,3c0,1,0.2,2,0.3,2.9c0.2,1.4,0.5,2.7,1.3,3.9c0.5,0.8,1.2,1.4,2.1,1.7
			c1.9,0.5,3.8-0.3,4.7-2.3c0.7-1.3,1-2.7,1.1-4.1c0.3-3.4,0.3-6.7-0.2-10.1c-0.2-1.2-0.4-2.4-1-3.5c-1.2-2.6-5.1-2.7-6.6-0.7
			c-0.6,0.8-1,1.8-1.3,2.8C151.1,82.5,151.1,84.7,151.2,86.9z"/>
		<path d="M126.4,93.1c1.9,0.2,3.8,0.3,5.7,0.6c2,0.3,3.8,1,5.6,1.9c0.9,0.5,1.3,1.2,1.3,2.1c0,1.5,0,2.9,0,4.4c0,0.1,0,0.2,0,0.2
			c-0.1,0.9-0.8,1.4-1.7,1c-2.3-1.2-4.8-1.9-7.3-2.3c-4.8-0.6-9.4,0.1-13.8,2.3c-0.7,0.4-1.3,0.1-1.6-0.6c0-0.1-0.1-0.3-0.1-0.4
			c0-1.7,0-3.3,0-5c0-1.1,0.3-2.1,1-3c3.9-5.5,7.7-11,11.5-16.5c0.1-0.2,0.3-0.4,0.4-0.6c-0.2,0-0.4,0-0.5,0c-3.3,0-6.5,0-9.8,0
			c-1.1,0-1.4-0.4-1.4-1.5c0-1.3,0-2.7,0-4c0-0.9,0.4-1.3,1.3-1.3c6.7,0,13.3,0,20,0c1,0,1.4,0.4,1.4,1.4c0,1,0,2,0,3
			c0,0.9-0.2,1.6-0.7,2.3c-1,1.5-2.1,3-3.1,4.4c-2.6,3.8-5.3,7.6-7.9,11.3C126.5,92.9,126.5,93.1,126.4,93.1z"/>
		<path class="st1" d="M126.4,105.8c2,0,4,0.1,5.9,0.6c0.1,0,0.2,0.1,0.3,0.1c1.4,0.4,1.7,0.9,1.8,2.3c0.1,2.6-0.5,5-1.4,7.5
			c-1.1,3-2.6,5.7-4.9,8c-0.3,0.3-0.6,0.6-1,0.8c-0.3,0.2-0.7,0.4-1.1,0.1c-0.3-0.3-0.2-0.7-0.1-1c0.7-2,1.6-4,2.2-6.1
			c0.5-1.5,0.8-3,1.1-4.5c0.1-0.6,0.1-1.2,0-1.8c-0.1-0.6-0.4-1.1-1-1.3c-0.8-0.2-1.7-0.5-2.5-0.5c-2.6-0.2-5.1,0-7.7,0.3
			c-0.9,0.1-1.8,0.2-2.7,0.3c-0.4,0-0.7,0-0.9-0.4c-0.2-0.4,0-0.7,0.3-0.9c0.8-0.5,1.6-1.1,2.4-1.5
			C120.2,106.4,123.3,105.9,126.4,105.8z"/>
	</g>
</g>
</svg>
