<?xml version="1.0" encoding="utf-8"?>
<!-- Generator: Adobe Illustrator 22.0.1, SVG Export Plug-In . SVG Version: 6.00 Build 0)  -->
<svg version="1.1" id="Layer_1" xmlns="http://www.w3.org/2000/svg" xmlns:xlink="http://www.w3.org/1999/xlink" x="0px" y="0px"
	 viewBox="0 0 200 200" style="enable-background:new 0 0 200 200;" xml:space="preserve">
<style type="text/css">
	.st0{fill:none;}
	.st1{fill:#E31034;}
	.st2{fill:#005CAC;}
</style>
<rect class="st0" width="200" height="200"/>
<g id="BF4tBp.tif">
	<g>
		<path class="st1" d="M34.7,94.9c-0.3,1.5-0.7,2.9-1,4.3c-0.7,2.9-1.4,5.8-2.1,8.7c-0.1,0.4-0.3,0.6-0.7,0.7c-2,0.3-4,0.8-6,1
			c-2.4,0.2-4.9,0.3-7.3,0.2c-4.7-0.2-9.2-1.5-13-4.5c-3.8-3-5.6-7-5.3-11.9c0.3-4,1.9-7.4,4.4-10.5c3.5-4.3,8-7.1,13.1-8.9
			c3.8-1.3,7.7-1.9,11.7-1.8c3.1,0.1,6.2,0.5,9.3,1.3c0.1,0,0.3,0.1,0.5,0.2c-0.7,4.6-1.5,9.1-2.3,13.8c-0.2-0.2-0.3-0.3-0.5-0.4
			c-2.1-1.7-4.4-2.9-7.1-3.2c-4.2-0.4-7.8,0.8-10.5,4c-1.3,1.5-1.9,3.3-1.4,5.4c0.4,1.7,1.5,2.8,3,3.6c1.8,1,3.7,1.3,5.8,1.2
			c3.3-0.2,6.2-1.3,8.9-3.1C34.4,95.1,34.5,95,34.7,94.9z"/>
		<path class="st1" d="M58.5,79.2c3.8,0.1,7.4,0.7,10.8,2.4c3.2,1.7,5.5,4.1,6.4,7.6c0.9,3.2,0.3,6.4-1.1,9.3c-1.9,4-5,6.8-8.9,8.8
			c-3.3,1.7-6.9,2.6-10.6,2.9c-3.7,0.3-7.4,0.1-11-1.1c-3.1-1-5.8-2.7-7.6-5.5c-1.4-2.1-1.9-4.5-1.7-7.1c0.6-5.8,3.7-10,8.5-13.1
			c3.5-2.2,7.3-3.5,11.4-4C56,79.4,57.2,79.3,58.5,79.2z M54.2,101c0,0,0-0.1,0-0.1c0.3,0,0.6,0,0.9,0c0.3,0,0.5-0.1,0.8-0.1
			c2.9-0.6,5.1-2,6.1-4.8c1.1-3.1-0.5-5.9-3.8-6.6c-1.3-0.3-2.5-0.3-3.8,0c-2.9,0.7-5,2.2-5.9,5.1c-0.9,2.8,0.3,5.1,3,6
			C52.5,100.8,53.4,100.8,54.2,101z"/>
		<path class="st1" d="M182.7,79.3c3.6,0,7.5,0.7,11,2.7c3.2,1.8,5.4,4.4,6.1,8.1c0.6,3.3-0.1,6.4-1.6,9.3c-2.1,3.9-5.3,6.5-9.2,8.3
			c-4.8,2.2-9.9,3-15.1,2.6c-3.5-0.3-6.8-1.1-9.7-3c-3-1.9-4.9-4.5-5.3-8.1c-0.4-3.1,0.3-6,1.8-8.7c2.1-3.9,5.3-6.5,9.2-8.4
			C173.8,80.2,178,79.3,182.7,79.3z M178.2,100.9c0.5-0.1,1.1-0.1,1.6-0.2c2.7-0.5,4.8-1.8,6-4.3c1.5-3.3-0.1-6.4-3.6-7.1
			c-1.2-0.3-2.5-0.3-3.7,0c-2.9,0.7-5.1,2.3-6,5.3c-0.7,2.4,0.2,4.5,2.4,5.5C175.9,100.7,177.1,100.9,178.2,100.9z"/>
		<path class="st1" d="M77.4,99.3c1.2,0.7,2.4,1.4,3.6,2c2,0.9,4.1,1.3,6.3,0.9c0.6-0.1,1.2-0.4,1.7-0.7c0.5-0.3,0.8-0.8,0.7-1.4
			c-0.1-0.6-0.6-0.8-1.1-0.9c-1.4-0.3-2.8-0.5-4.2-0.7c-1.8-0.3-3.5-0.7-5-1.6c-1.7-1-3-2.3-3.2-4.4c-0.2-1.7,0.3-3.2,1-4.7
			c1.2-2.3,3-3.9,5.1-5.2c3-1.8,6.3-2.8,9.8-3.1c3.9-0.3,7.8,0,11.5,1.6c0.7,0.3,1.3,0.6,2,0.9c-1.7,2.6-3.4,5.1-5,7.6
			c-1.3-0.6-2.5-1.2-3.8-1.6c-1.6-0.6-3.3-0.7-4.9-0.4c-0.5,0.1-0.9,0.3-1.3,0.6c-0.4,0.3-0.7,0.7-0.6,1.2c0.1,0.5,0.5,0.7,0.9,0.8
			c1.1,0.3,2.3,0.5,3.4,0.7c1.8,0.4,3.7,0.7,5.4,1.6c2,1,3.5,2.3,3.8,4.6c0.3,2.2-0.3,4.2-1.4,6c-1.6,2.6-3.9,4.2-6.6,5.4
			c-4,1.7-8.2,2.3-12.5,1.9c-3.5-0.3-7-1-10.3-2.3c-0.3-0.1-0.6-0.2-1-0.4C73.6,104.8,75.5,102,77.4,99.3z"/>
		<path class="st2" d="M68.2,122.2c0.1-0.2,0.2-0.2,0.2-0.3c1.2-2.5,2.3-5,3.5-7.4c0.1-0.3,0.3-0.4,0.6-0.4c1.2,0,2.4,0,3.6,0
			c0.4,0,0.5,0.1,0.5,0.5c0.2,2.3,0.4,4.7,0.6,7c0,0.2,0.1,0.4,0.2,0.6c0.1-0.2,0.1-0.3,0.2-0.5c1.1-2.4,2.2-4.9,3.3-7.3
			c0.1-0.2,0.4-0.3,0.6-0.3c1.6,0,3.2,0,4.8,0c1.9,0,3.8,0,5.6,0c0.1,0,0.2,0,0.4,0c-0.3,1.5-0.5,3-0.8,4.5c0.7,0,1.4,0,2.1,0
			c1.6,0,1.6,0,1.9-1.6c0.1-0.8,0.3-1.7,0.5-2.5c0-0.2,0.3-0.4,0.4-0.4c1.7,0,3.4,0,5,0c0.1,0,0.1,0,0.2,0.1
			c-0.4,1.9-0.7,3.9-1.1,5.8c0,0,0,0,0.1,0c0-0.1,0.1-0.1,0.1-0.2c1.1-2.8,3.2-4.4,5.9-5.3c2.7-0.9,5.4-1,8.1,0
			c1.8,0.7,3.2,1.9,3.6,3.9c0.1,0.5,0.1,1.1,0.2,1.7c0.1-0.7,0.3-1.5,0.4-2.2c0.2-1.2,0.4-2.3,0.7-3.5c0-0.2,0.2-0.4,0.3-0.4
			c1.8,0,3.6,0,5.5,0c-0.6,3.1-1.1,6.1-1.7,9.2c1.7,0,3.3,0,5,0c-0.3,1.5-0.5,2.8-0.8,4.3c-3.6,0-7.1,0-10.8,0
			c0.4-1.9,0.7-3.8,1.1-5.7c-0.1,0-0.2,0-0.2,0c-1.2,2.9-3.4,4.6-6.4,5.4c-2.6,0.7-5.2,0.8-7.7-0.2c-2.3-0.9-3.7-2.5-3.7-5.2
			c0-0.1,0-0.1-0.1-0.2c-0.1,0.4-0.2,0.8-0.3,1.2c-0.1,0.4-0.2,0.8-0.2,1.2c-0.2,1-0.4,2-0.6,3c0,0.2-0.2,0.4-0.4,0.4
			c-1.7,0-3.4,0-5.1,0c0,0-0.1,0-0.1-0.1c0.3-1.5,0.6-3,0.9-4.6c-1.2,0-2.3,0-3.5,0c-0.1,0-0.3,0.3-0.3,0.4
			c-0.3,1.4-0.5,2.8-0.8,4.3c-1.8,0-3.7,0-5.6,0c0.8-4.1,1.6-8.2,2.3-12.3c0,0-0.1,0-0.1-0.1c-0.1,0.1-0.2,0.3-0.3,0.4
			c-2.3,3.8-4.7,7.6-7,11.5c-0.2,0.4-0.5,0.5-0.9,0.5c-1.3,0-2.7,0-4,0c-0.4,0-0.6-0.1-0.6-0.6c-0.1-2.1-0.2-4.2-0.3-6.2
			c0-0.2-0.1-0.4-0.1-0.7c-0.1,0.2-0.2,0.3-0.3,0.4c-0.7,1.7-1.5,3.3-2.2,5c-0.3,0.6-0.6,1.2-0.9,1.8c-0.1,0.2-0.3,0.3-0.5,0.3
			c-1.4,0-2.8,0-4.2,0c-0.3,0-0.4-0.1-0.5-0.4c-1-4.3-2-8.6-3-12.8c0-0.1,0-0.1,0-0.2c0.2,0,0.3,0,0.5,0c1.6,0,3.2,0,4.9,0
			c0.5,0,0.6,0.2,0.6,0.6c0.1,2.4,0.3,4.7,0.4,7.1C68.1,121.8,68.2,121.9,68.2,122.2z M109,123.5c1.9-0.1,3.2-1,3.5-2.4
			c0.3-1.1-0.1-2.1-1-2.6c-1.8-1-4.4,0-5,1.9c-0.5,1.4,0.1,2.7,1.6,3C108.4,123.5,108.8,123.5,109,123.5z"/>
		<path class="st1" d="M159,91.9c-1.3-1.1-2.7-2-4.2-2.5c-3.7-1.2-8.1,0-10.4,3c-0.9,1.2-1.4,2.6-1.1,4.2c0.4,2,1.9,3.1,3.7,3.7
			c2.8,0.9,5.6,0.4,8.2-0.8c0.9-0.4,1.7-0.9,2.6-1.4c-0.3,1.4-0.6,2.7-0.9,4c-0.5,2.2-1,4.4-1.5,6.6c-0.1,0.4-0.3,0.6-0.6,0.6
			c-1.9,0.3-3.8,0.7-5.8,0.9c-2,0.1-4,0.2-6,0c-3.2-0.2-6.2-1.3-8.8-3.3c-4.3-3.3-5.8-8.4-4-13.7c1.4-4,4-7.1,7.4-9.4
			c5.1-3.6,10.9-5,17.1-4.4c1.9,0.2,3.7,0.6,5.5,0.9c0.5,0.1,0.6,0.3,0.5,0.8c-0.6,3.4-1.1,6.8-1.6,10.1
			C159.1,91.4,159.1,91.6,159,91.9z"/>
		<path class="st1" d="M104.9,109.9c2.1-6.9,4.2-13.8,6.3-20.7c-2.5,0.1-4.9,0.2-7.5,0.3c1-3.3,2-6.5,2.9-9.7c9.4,0,18.7,0,28.1,0
			c-0.3,1.1-0.7,2.1-1,3.2c-0.6,2-1.2,4-1.8,6c-0.1,0.4-0.3,0.5-0.7,0.5c-2.1-0.1-4.2-0.2-6.2-0.3c-0.4,0-0.6,0.1-0.7,0.5
			c-2,6.5-4,13-5.9,19.6c-0.1,0.5-0.3,0.6-0.8,0.6c-4,0-8.1,0-12.1,0C105.3,109.9,105.1,109.9,104.9,109.9z"/>
		<path class="st2" d="M169.7,126.3c0.3-1.6,0.6-3.2,0.9-4.8c0.4-2.3,0.9-4.7,1.3-7c0-0.2,0.2-0.4,0.3-0.4c1.8,0,3.6,0,5.5,0
			c-0.6,3.1-1.1,6.1-1.7,9.2c1.7,0,3.3,0,5,0c-0.3,1.5-0.5,2.8-0.8,4.3c-5.5,0-11,0-16.6,0c-0.1-0.4-0.1-0.8-0.2-1.2
			c0-0.3-0.2-0.5-0.5-0.5c-1.2,0-2.5,0-3.7,0c-0.2,0-0.5,0.2-0.6,0.4c-0.3,1.2-1.1,1.4-2.2,1.3c-1.5-0.1-3,0-4.6,0
			c0.5-0.8,0.9-1.5,1.4-2.3c-4,3.3-8.3,2.9-12.8,1.4c0,0-0.1,0.1-0.1,0.1c-0.3,0.8-0.3,0.8-1.1,0.8c-3.1,0-6.3,0-9.4,0
			c-0.2,0-0.4,0-0.7,0c0.2-1.1,0.4-2.1,0.6-3.2c0.6-3.2,1.2-6.4,1.8-9.6c0.1-0.5,0.2-0.7,0.8-0.7c3.2,0,6.4,0,9.6,0
			c0.2,0,0.4,0,0.6,0c-0.2,1.1-0.4,2.2-0.7,3.3c0,0.1-0.3,0.3-0.5,0.3c-1.3,0-2.5,0-3.8,0c-0.8,0-0.8,0-0.9,0.8c0,0.2,0,0.3-0.1,0.6
			c1.5,0,3,0,4.5,0c-0.2,1.1-0.4,2.2-0.6,3.2c0,0.1-0.3,0.2-0.5,0.2c-1.1,0-2.3,0-3.4,0c-0.5,0-0.8,0.1-0.8,0.7
			c0,0.2-0.1,0.5-0.1,0.8c1.7,0,3.4,0,5.1,0c-0.1,0.8-0.3,1.5-0.4,2.2c0,0,0.1,0,0.1,0.1c0.7-1.1,1.5-2.2,2.2-3.3
			c0.2,0.1,0.3,0.2,0.5,0.3c1.1,0.7,2.2,1.1,3.5,1c0.3,0,0.7-0.1,0.9-0.3c0.2-0.1,0.5-0.5,0.4-0.7c0-0.2-0.3-0.5-0.6-0.5
			c-0.8-0.2-1.6-0.3-2.4-0.5c-0.6-0.1-1.2-0.4-1.7-0.7c-1.2-0.7-1.5-1.8-1.1-3.1c0.4-1.4,1.3-2.4,2.6-3.1c3.2-1.8,6.4-1.9,9.7-0.5
			c0.1,0.1,0.2,0.1,0.4,0.2c-0.7,1.1-1.4,2.2-2.1,3.2c-0.9-0.3-1.8-0.6-2.6-0.8c-0.5-0.1-1.1,0-1.6,0.1c-0.2,0.1-0.5,0.4-0.5,0.7
			c0,0.1,0.4,0.4,0.6,0.5c0.8,0.2,1.7,0.4,2.5,0.6c0.3,0.1,0.6,0.2,0.9,0.3c1.6,0.7,2.1,1.8,1.8,3.5c0,0.1,0,0.3,0,0.4
			c0.1-0.2,0.3-0.5,0.4-0.7c1.7-2.8,3.4-5.5,5-8.3c0.2-0.4,0.5-0.5,0.9-0.5c1.8,0,3.5,0,5.3,0c0.5,0,0.7,0.2,0.8,0.6
			c0.9,3.7,1.8,7.5,2.7,11.2C169.5,126,169.5,126.1,169.7,126.3C169.6,126.3,169.6,126.3,169.7,126.3z M163,118.4
			c-0.1,0-0.1,0-0.2-0.1c-0.7,1.4-1.3,2.8-1.9,4.2c0.9,0,1.6,0,2.4,0C163.2,121.2,163.1,119.8,163,118.4z"/>
		<path class="st2" d="M60.9,117.6c-20.1,0-40.1,0-60.2,0c0-1.2,0-2.3,0-3.5c0.2,0,0.4,0,0.6,0c19.4,0,38.9,0,58.3,0
			c0.5,0,0.7,0.1,0.8,0.6c0.1,0.8,0.4,1.6,0.5,2.5C60.9,117.3,60.9,117.4,60.9,117.6z"/>
		<path class="st2" d="M0.7,127.4c0-1.1,0-2.2,0-3.3c0.2,0,0.4,0,0.6,0c20.2,0,40.4,0,60.6,0c0.5,0,0.7,0.1,0.8,0.6
			c0.2,0.9,0.4,1.8,0.6,2.7C42.4,127.4,21.5,127.4,0.7,127.4z"/>
		<path class="st2" d="M62.1,122.5c-20.5,0-40.9,0-61.5,0c0-1,0-2,0-3c0-0.1,0.2-0.2,0.3-0.2c0.2,0,0.4,0,0.5,0
			c19.7,0,39.4,0,59.1,0c0.8,0,0.8,0,1,0.8C61.7,120.8,61.9,121.6,62.1,122.5z"/>
		<path class="st2" d="M189,119c1.5,0,2.9,0,4.5,0c-0.1,0.8-0.3,1.5-0.4,2.2c-0.2,1.2-0.2,1.2-1.5,1.2c-0.9,0-1.8,0-2.7,0
			c-0.5,0-0.7,0.1-0.7,0.6c0,0.3-0.1,0.5-0.1,0.9c1.7,0,3.4,0,5.1,0c-0.2,0.9-0.3,1.6-0.4,2.4c-0.3,1.3-0.3,1.3-1.6,1.3
			c-3,0-6,0-9,0c-0.2,0-0.4,0-0.7,0c0.2-1.3,0.5-2.5,0.7-3.7c0.6-3,1.2-6.1,1.7-9.1c0.1-0.5,0.3-0.7,0.8-0.7c3.2,0,6.3,0,9.5,0
			c0.2,0,0.4,0,0.7,0c-0.2,1.2-0.4,2.2-0.6,3.3c-0.1,0.4-0.3,0.3-0.5,0.3c-1.2,0-2.5,0-3.7,0c-0.8,0-0.9,0-1,0.8
			C189,118.6,189,118.8,189,119z"/>
		<path class="st1" d="M194.2,106.6c0.9,0,1.6,0.4,1.8,1.1c0.2,0.7-0.1,1.4-0.8,2c-0.8,0.6-1.6,0.8-2.5,0.5
			c-1.1-0.3-1.6-1.4-0.9-2.4C192.3,107.1,193.2,106.6,194.2,106.6z M194.1,107c-0.9,0-1.6,0.4-1.9,1.1c-0.3,0.7,0,1.4,0.7,1.6
			c0.7,0.2,1.4,0.1,1.9-0.3c0.6-0.4,0.8-1.1,0.7-1.6C195.3,107.3,194.8,107,194.1,107z"/>
		<path class="st1" d="M192.7,109.4c0.1-0.5,0.1-1.1,0.3-1.6c0.3-0.6,0.9-0.2,1.3-0.2c0.1,0,0.5,0.3,0.5,0.3
			c-0.1,0.3-0.3,0.6-0.4,0.8c0,0-0.1,0-0.1,0c0.1,0.2,0.2,0.5,0.3,0.7c0,0-0.1,0.1-0.1,0.1c-0.2-0.1-0.3-0.3-0.5-0.4
			c-0.2-0.2-0.3-0.3-0.5-0.5c-0.1,0.2-0.2,0.4-0.3,0.6c-0.1,0.1-0.2,0.2-0.3,0.3C192.8,109.5,192.8,109.4,192.7,109.4z M194,107.7
			c-0.2,0.1-0.4,0.2-0.5,0.3c0.1,0.1,0.3,0.2,0.4,0.2c0.2,0,0.4-0.2,0.6-0.2C194.3,107.9,194.2,107.8,194,107.7z"/>
	</g>
</g>
</svg>
