<?xml version="1.0" encoding="utf-8"?>
<!-- Generator: Adobe Illustrator 22.0.1, SVG Export Plug-In . SVG Version: 6.00 Build 0)  -->
<svg version="1.1" id="Layer_1" xmlns="http://www.w3.org/2000/svg" xmlns:xlink="http://www.w3.org/1999/xlink" x="0px" y="0px"
	 viewBox="0 0 200 200" style="enable-background:new 0 0 200 200;" xml:space="preserve">
<style type="text/css">
	.st0{fill:none;}
	.st1{fill:#CC0000;}
</style>
<rect class="st0" width="200" height="200"/>
<g>
	<g>
		<path class="st1" d="M100.4,129.7c-28.7,0-51.9-23.2-51.9-51.9c0-28.7,23.3-51.9,51.9-51.9c28.7,0,51.9,23.2,51.9,51.9
			C152.4,106.5,129.1,129.7,100.4,129.7 M100.4,0c-43,0-77.8,34.9-77.8,77.9c0,43,34.8,77.8,77.8,77.8c43,0,77.9-34.8,77.9-77.8
			C178.3,34.9,143.4,0,100.4,0z"/>
		<path class="st1" d="M100.4,51.2c-14.7,0-26.7,11.9-26.7,26.7c0,14.7,11.9,26.7,26.7,26.7c14.7,0,26.7-11.9,26.7-26.7
			C127.1,63.1,115.2,51.2,100.4,51.2"/>
		<polyline class="st1" points="30.1,176 21.5,176 21.5,170.7 44.9,170.7 44.9,176 36.4,176 36.4,199.3 30.1,199.3 30.1,176 		"/>
		<path class="st1" d="M42.2,199.3h6.4l2.2-6.4h10.7l2.2,6.4h6.5l-10.7-28.6h-6.5L42.2,199.3 M56.2,177.7L56.2,177.7l3.7,10.5h-7.4
			L56.2,177.7z"/>
		<path class="st1" d="M72.7,199.3H79v-11.2h6.3c3.2,0,4.3,1.3,4.8,4.3c0.3,2.3,0.2,5.1,1,6.9h6.3c-1.1-1.6-1.1-5-1.2-6.8
			c-0.2-2.9-1.1-5.9-4.2-6.7v-0.1c3.2-1.3,4.5-3.8,4.5-7.2c0-4.3-3.3-7.9-8.4-7.9H72.7L72.7,199.3 M79,175.6h6.9
			c2.8,0,4.3,1.2,4.3,4c0,2.9-1.5,4.1-4.3,4.1H79V175.6z"/>
		<path class="st1" d="M121.6,196.1c-2.2,2.9-5.1,3.9-7.9,3.9c-8.9,0-14.1-6.6-14.1-14.9c0-8.5,5.2-15.1,14.1-15.1
			c5.9,0,11.4,3.6,12.1,10.1h-6c-0.7-3.2-3.1-4.8-6.1-4.8c-5.7,0-7.8,4.8-7.8,9.8c0,4.8,2.1,9.6,7.8,9.6c4.1,0,6.5-2.2,6.8-6.2h-6.3
			v-4.7h12v15.5h-4L121.6,196.1"/>
		<polyline class="st1" points="130.5,170.7 151.9,170.7 151.9,176 136.8,176 136.8,182.1 150.7,182.1 150.7,187 136.8,187 
			136.8,194 152.3,194 152.3,199.3 130.5,199.3 130.5,170.7 		"/>
		<polyline class="st1" points="163.6,176 155.1,176 155.1,170.7 178.5,170.7 178.5,176 169.9,176 169.9,199.3 163.6,199.3 
			163.6,176 		"/>
	</g>
</g>
</svg>
